<svg xmlns="http://www.w3.org/2000/svg" width="1348.27" height="638.283" viewBox="0 0 1348.27 638.283"><g transform="translate(-17.73 -1600.7)"><g transform="translate(-449.98 1043.973)"><path d="M1789.19,1194.77h23.79a3,3,0,0,0,3-3V1032.53a3,3,0,0,0-3-3h-23.79a3,3,0,0,0-3,3v159.24A3,3,0,0,0,1789.19,1194.77Z" fill="#8aebfe"/><path d="M1751.06,1194.77h32.13a3,3,0,0,0,3-3V1050.12a3,3,0,0,0-3-3h-32.13a3,3,0,0,0-3,3v141.65A3,3,0,0,0,1751.06,1194.77Z" fill="#ffca60"/><path d="M1721.28,1194.77h23.79a3,3,0,0,0,3-3V1078.6a3,3,0,0,0-3-3h-23.79a3,3,0,0,0-3,3v113.17A3,3,0,0,0,1721.28,1194.77Z" fill="#8b41d2"/><path d="M1668.98,1189.66l18.92,5.24a3,3,0,0,0,3.68-2.05l24.77-84.71a3,3,0,0,0-2.08-3.73l-18.92-5.24a3,3,0,0,0-3.68,2.05l-24.77,84.71A3,3,0,0,0,1668.98,1189.66Z" fill="#ff6089"/></g><g transform="translate(-604.27 979.781)"><path d="M714.961,620.92H643.73a4.829,4.829,0,0,0-4.83,4.83v57.914a2.6,2.6,0,0,0,4.126,2.1l6.281-4.6a4.807,4.807,0,0,1,2.851-.931h62.8a4.829,4.829,0,0,0,4.83-4.83V625.742A4.828,4.828,0,0,0,714.961,620.92Z" fill="#f46e9e"/><path d="M692.089,646.965a7.06,7.06,0,0,1-6.963,0c-4.625-2.646-12.056-.476-11.565,8.472.667,12.342,15.032,17.729,15.032,17.729s14.372-5.387,15.039-17.729C704.116,646.481,696.714,644.312,692.089,646.965Z" transform="translate(-9.252 -6.674)" fill="none" stroke="#fff" stroke-linecap="round" stroke-linejoin="round" stroke-miterlimit="10" stroke-width="3"/></g><g transform="translate(-945.98 1466.756)"><g transform="translate(963.71 698.343)"><path d="M1077.441,713.07H975.062a6.412,6.412,0,0,0-6.412,6.412v42.011a6.412,6.412,0,0,0,6.412,6.412h102.385a6.412,6.412,0,0,0,6.412-6.412V719.482A6.421,6.421,0,0,0,1077.441,713.07Z" transform="translate(-965.613 -713.021)" fill="#8b41d2"/><path d="M1078.574,712.99H970.122a6.412,6.412,0,0,0-6.412,6.412v11.459a6.412,6.412,0,0,0,6.412,6.412h108.447a6.412,6.412,0,0,0,6.412-6.412V719.4A6.4,6.4,0,0,0,1078.574,712.99Z" transform="translate(-963.71 -712.99)" fill="#ad64f3"/></g><g transform="translate(1001.939 674.972)"><g transform="translate(12.438 23.371)"><rect width="19.604" height="54.878" fill="#ffca60"/><g transform="translate(2.57 0.049)"><line y2="54.829" fill="none" stroke="#ff8f5f" stroke-linecap="round" stroke-linejoin="round" stroke-miterlimit="10" stroke-width="3"/><line y2="54.829" transform="translate(14.754)" fill="none" stroke="#ff8f5f" stroke-linecap="round" stroke-linejoin="round" stroke-miterlimit="10" stroke-width="3"/></g></g><path d="M1032.015,674.977c-13.057,1.377-4.039,26.4,15.91,23.317C1048.859,686.276,1046.7,674.694,1032.015,674.977Z" transform="translate(-1025.897 -674.972)" fill="#ffca60"/><path d="M1078.323,674.979c-13.321-.166-18.719,11.477-17.293,23.317h6.627C1080.6,699.747,1092.051,677.124,1078.323,674.979Z" transform="translate(-1039.347 -674.974)" fill="#ffca60"/><g transform="translate(5.455 4.444)"><path d="M1049.487,699.794s-19.77-8.588-13.481-16.094,14.987,15.6,14.987,15.6" transform="translate(-1034.771 -682.2)" fill="none" stroke="#ff8f5f" stroke-linecap="round" stroke-linejoin="round" stroke-miterlimit="10" stroke-width="3"/><path d="M1064.82,698.718s4.893-16.672,12.8-14.809-1.242,13.131-10.524,15.8" transform="translate(-1046.347 -682.803)" fill="none" stroke="#ff8f5f" stroke-linecap="round" stroke-linejoin="round" stroke-miterlimit="10" stroke-width="3"/><path d="M1059.953,705.037c-4.174-.191-4.943,4.943-4.943,4.943l10.4-.1C1065.417,709.875,1064.3,705.233,1059.953,705.037Z" transform="translate(-1042.568 -690.996)" fill="#ff8f5f"/></g></g></g><g transform="translate(-1333.923 1436.835)"><path d="M1425.029,695.043l2.677-1.957a2.062,2.062,0,0,1,1.214-.4h26.753a2.057,2.057,0,0,0,2.057-2.058V669.478a2.056,2.056,0,0,0-2.057-2.058h-30.344a2.057,2.057,0,0,0-2.058,2.058v24.671A1.106,1.106,0,0,0,1425.029,695.043Z" transform="translate(0 0)" fill="#8aebfe"/><line x2="20.339" transform="translate(1430.948 674.767)" fill="none" stroke="#1f2970" stroke-linecap="round" stroke-linejoin="round" stroke-miterlimit="10" stroke-width="3"/><line x2="20.339" transform="translate(1430.948 679.449)" fill="none" stroke="#1f2970" stroke-linecap="round" stroke-linejoin="round" stroke-miterlimit="10" stroke-width="3"/><line x2="10.169" transform="translate(1430.948 684.133)" fill="none" stroke="#1f2970" stroke-linecap="round" stroke-linejoin="round" stroke-miterlimit="10" stroke-width="3"/></g><g transform="translate(25.422 2082.535)"><path d="M1470.389,707.222l-3.857-2.82a2.973,2.973,0,0,0-1.749-.572h-38.548a2.963,2.963,0,0,1-2.965-2.965v-30.48a2.963,2.963,0,0,1,2.965-2.965h43.724a2.963,2.963,0,0,1,2.965,2.965v35.549A1.594,1.594,0,0,1,1470.389,707.222Z" transform="translate(-1423.27 -667.42)" fill="#8aebfe"/><line x1="29.307" transform="translate(9.283 10.587)" fill="none" stroke="#1f2970" stroke-linecap="round" stroke-linejoin="round" stroke-miterlimit="10" stroke-width="3"/><line x1="29.307" transform="translate(9.283 17.332)" fill="none" stroke="#1f2970" stroke-linecap="round" stroke-linejoin="round" stroke-miterlimit="10" stroke-width="3"/><line x1="14.653" transform="translate(23.937 24.082)" fill="none" stroke="#1f2970" stroke-linecap="round" stroke-linejoin="round" stroke-miterlimit="10" stroke-width="3"/></g></g></svg>