<svg xmlns="http://www.w3.org/2000/svg" xmlns:xlink="http://www.w3.org/1999/xlink" width="1448.868" height="803.06" viewBox="0 0 1448.868 803.06"><defs><clipPath id="a"><path d="M1700.04,1507.955H311.29c-13.73,0-20.75-7.884-11.25-12.628l143.84-71.817a31.587,31.587,0,0,1,13.62-2.781H1563.66c5.37,0,10.49,1.1,14.07,3.016l133.94,71.773C1720.64,1500.33,1713.51,1507.955,1700.04,1507.955Z" transform="translate(-295.673 -1420.73)"/></clipPath></defs><g transform="translate(55.873 -768)"><path d="M295.5,207.158h-3.117a15.628,15.628,0,0,0-13.715-12.245,19.477,19.477,0,0,0-9.128-13.537,12.74,12.74,0,0,0-5.967-21.107V50.951c2.761-3.028,5.522-6.056,8.193-9.173,5.789,2.983,11.711,5.833,17.678,8.639-2.716-12.245-5.388-24.491-8.1-36.781,2.716-.579,5.477-1.158,8.193-1.781a3.338,3.338,0,0,0-1.514-6.5,607.058,607.058,0,0,1-275.455,0,3.338,3.338,0,1,0-1.514,6.5c2.716.623,5.433,1.2,8.193,1.781Q15.168,32,11.183,50.416c5.967-2.805,11.845-5.655,17.678-8.639,2.805,3.251,5.655,6.457,8.594,9.663v75.832A12.765,12.765,0,0,0,35.9,151.452a8.4,8.4,0,0,1-1.113,1.38,13.206,13.206,0,0,1-5.165,3.072c-11.4,3.785-19.325,12.958-21.062,23.823H7.22a3.34,3.34,0,0,0,0,6.679h3.072v60.648H7.22a3.34,3.34,0,0,0,0,6.679H8.511c1.781,11,10.108,20.439,21.641,24.046a10.861,10.861,0,0,1,7.258,7.436,3.329,3.329,0,0,0,3.206,2.494h0a3.29,3.29,0,0,0,3.206-2.494,10.4,10.4,0,0,1,2.761-4.631,13.1,13.1,0,0,1,5.165-3.072c11.4-3.785,19.325-12.958,21.062-23.823H74.1a3.34,3.34,0,1,0,0-6.679H70.985V186.5H74.1a3.34,3.34,0,1,0,0-6.679H72.811c-1.781-11-10.108-20.439-21.641-24.046a10.616,10.616,0,0,1-5.655-4.23,12.792,12.792,0,0,0-1.469-24.224V43.737c1.38-8.149,2.761-16.253,4.141-24.4,5.744.98,11.488,1.87,17.277,2.672q-2.6,18.635-5.254,37.315c5.744-3.251,11.355-6.59,16.921-10.019q6.946,6.88,14.16,13.581,1.737-18.769,3.429-37.493,8.683.8,17.366,1.336-1.2,18.836-2.315,37.627c3.429-2.315,6.768-4.72,10.153-7.125v52.188a13.673,13.673,0,0,0,0,26.539v9.663a1.048,1.048,0,0,0,.089.356,29.478,29.478,0,0,0-10.6,3.518,30.5,30.5,0,0,0-.089,53.39c12.067,6.9,26.762,4.453,36.425-5.522l.223-.223a1.368,1.368,0,0,0-1.38-2.226,19.423,19.423,0,1,1-.089-37.449,1.362,1.362,0,0,0,1.38-2.226l-.178-.178a30.707,30.707,0,0,0-19.192-9.262c0-.089.045-.178.045-.267v-9.663a13.688,13.688,0,0,0,0-26.539V53.667c4.72,4.008,9.485,7.971,14.383,11.845.178-12.557.356-25.159.534-37.716,2.894.045,5.789.134,8.728.134,2.894,0,5.833-.089,8.728-.134.178,12.557.312,25.159.534,37.716,4.854-3.874,9.663-7.837,14.383-11.845V160.046l-4.631,9.351L158.172,171a3.344,3.344,0,0,0-1.826,5.7l8.015,7.748-1.915,11a3.315,3.315,0,0,0,4.809,3.518l6.635-3.429v12.913l-7.614,15.362-17.811,2.583a3.334,3.334,0,0,0-2.716,2.271,3.379,3.379,0,0,0,.846,3.429l12.913,12.557-3.028,17.678a3.328,3.328,0,0,0,3.3,3.919,3.8,3.8,0,0,0,1.559-.356l15.941-8.371,15.9,8.327a3.259,3.259,0,0,0,3.518-.223,3.333,3.333,0,0,0,1.291-3.3L195,244.651l12.824-12.557a3.344,3.344,0,0,0-1.826-5.7l-17.811-2.583-7.57-15.407V195.536l6.5,3.429a3.217,3.217,0,0,0,3.518-.267,3.29,3.29,0,0,0,1.336-3.251l-1.87-11,7.971-7.793A3.31,3.31,0,0,0,196.2,171l-11.043-1.6-4.542-9.307V57.185c3.384,2.4,6.724,4.809,10.153,7.125q-1.2-18.769-2.36-37.627c5.789-.356,11.622-.8,17.411-1.336,1.158,12.513,2.316,25.025,3.384,37.493q7.28-6.679,14.2-13.581c5.522,3.429,11.177,6.768,16.876,10.019-1.737-12.468-3.473-24.847-5.254-37.315,5.789-.8,11.577-1.692,17.322-2.672q2.271,13.359,4.5,26.717V160.224a12.73,12.73,0,0,0-6.011,21.107,19.477,19.477,0,0,0-9.128,13.537,15.675,15.675,0,0,0-13.715,12.245h-3.162a3.34,3.34,0,0,0,0,6.679h3.34l9.173,50.05h-2.093a3.34,3.34,0,0,0,0,6.679H243.4c1.514,8.238,8.416,14.472,16.743,14.472s15.229-6.234,16.743-14.472h8.149a3.34,3.34,0,1,0,0-6.679h-2.093l9.173-50.05h3.34a3.364,3.364,0,0,0,3.34-3.34A3.288,3.288,0,0,0,295.5,207.158ZM49.7,271.279A20.511,20.511,0,0,0,42,275.91c-.445.445-.891.891-1.291,1.38a17.689,17.689,0,0,0-8.55-5.833c-8.772-2.761-15.229-9.618-16.921-17.678h50.9C64.484,261.794,58.339,268.429,49.7,271.279ZM30.33,247.1V210.764a10.192,10.192,0,0,1,10.375-9.974,10.519,10.519,0,0,1,7.347,2.939,9.682,9.682,0,0,1,3.028,7.036V247.1Zm18.836-85.005c8.772,2.761,15.229,9.618,16.921,17.678H15.235c1.648-7.971,7.793-14.65,16.431-17.5a20.865,20.865,0,0,0,7.7-4.631c.445-.445.891-.891,1.291-1.38A17.472,17.472,0,0,0,49.166,162.094ZM243.044,263.887l-6.056-37.36h11.934a4.367,4.367,0,0,1,4.1,4.631v32.729Zm17.144,14.472a10.47,10.47,0,0,1-9.841-7.793h19.682A10.471,10.471,0,0,1,260.187,278.359Zm17.144-14.472H267.4V231.159a4.367,4.367,0,0,1,4.1-4.631h11.889Zm-42.347-56.774a9,9,0,0,1,8.327-5.655h1.514a3.364,3.364,0,0,0,3.34-3.34c0-7.036,5.388-12.735,12.067-12.735s12.067,5.7,12.067,12.735a3.364,3.364,0,0,0,3.34,3.34h1.514a8.935,8.935,0,0,1,8.327,5.655Z" transform="translate(1087.206 762.728)" fill="#0c8e62"/><g transform="translate(-682.054 302.223)"><circle cx="54.178" cy="54.178" r="54.178" transform="translate(784.818 587.733) rotate(-45)" fill="#12ae67"/><g transform="translate(825.535 551.821)"><path d="M906.764,596.59V582.8a1.3,1.3,0,0,0-1.3-1.3H891.669l-9.757-9.757a1.309,1.309,0,0,0-1.845,0l-9.757,9.757H856.519a1.3,1.3,0,0,0-1.3,1.3V596.59l-9.757,9.757a1.309,1.309,0,0,0,0,1.845l9.757,9.757V631.74a1.3,1.3,0,0,0,1.3,1.3h13.8l9.757,9.757a1.309,1.309,0,0,0,1.845,0l9.757-9.757h13.791a1.3,1.3,0,0,0,1.3-1.3v-13.8l9.757-9.757a1.309,1.309,0,0,0,0-1.845Z" transform="translate(-845.078 -571.358)" fill="none" stroke="#fff" stroke-linecap="round" stroke-linejoin="round" stroke-miterlimit="10" stroke-width="3"/><line y2="23.602" transform="translate(50.098 24.327)" fill="none" stroke="#fff" stroke-linecap="round" stroke-linejoin="round" stroke-miterlimit="10" stroke-width="3"/><path d="M903.77,607.36v21.575a2.024,2.024,0,0,1-2.027,2.027h-4.331a2.624,2.624,0,0,1-2.622-2.622V607.36" transform="translate(-861.199 -583.033)" fill="none" stroke="#fff" stroke-linecap="round" stroke-linejoin="round" stroke-miterlimit="10" stroke-width="3"/><path d="M886.434,628.242v2.46a2.624,2.624,0,0,1-2.622,2.622h-4.629a1.683,1.683,0,0,1-1.682-1.682v-17l-8.068,9.284a1.738,1.738,0,0,0,1.311,2.878h6.75" transform="translate(-852.837 -585.394)" fill="none" stroke="#fff" stroke-linecap="round" stroke-linejoin="round" stroke-miterlimit="10" stroke-width="3"/></g></g><g transform="translate(-322.667 63.105)"><g transform="translate(295.673 1420.73)" clip-path="url(#a)"><path d="M1700.04,1507.955H311.29c-13.73,0-20.75-7.884-11.25-12.628l143.84-71.817a31.587,31.587,0,0,1,13.62-2.781H1563.66c5.37,0,10.49,1.1,14.07,3.016l133.94,71.773C1720.64,1500.33,1713.51,1507.955,1700.04,1507.955Z" transform="translate(-295.673 -1420.73)" fill="#0d50ab"/></g><g transform="translate(295.673 1420.73)" clip-path="url(#a)"><path d="M311.29,1580.62c-14.25,0-15.21,10.277-.98,10.675q.48.014.99.014H1700.05c.33,0,.66,0,.98-.014,14.23-.4,13.27-10.675-.98-10.675Z" transform="translate(-295.673 -1504.084)" fill="#1f2970"/></g><g transform="translate(295.673 1420.73)" clip-path="url(#a)"><g transform="translate(-137.793 -34.891)"><line x2="467.73" y2="129.574" transform="translate(0 27.433)" fill="none" stroke="#1f2970" stroke-linecap="round" stroke-linejoin="round" stroke-miterlimit="10" stroke-width="3"/><line x2="467.73" y2="129.574" transform="translate(111.82 24.939)" fill="none" stroke="#1f2970" stroke-linecap="round" stroke-linejoin="round" stroke-miterlimit="10" stroke-width="3"/><line x2="467.74" y2="129.574" transform="translate(223.64 22.445)" fill="none" stroke="#1f2970" stroke-linecap="round" stroke-linejoin="round" stroke-miterlimit="10" stroke-width="3"/><line x2="467.74" y2="129.574" transform="translate(335.46 19.951)" fill="none" stroke="#1f2970" stroke-linecap="round" stroke-linejoin="round" stroke-miterlimit="10" stroke-width="3"/><line x2="467.73" y2="129.574" transform="translate(447.29 17.458)" fill="none" stroke="#1f2970" stroke-linecap="round" stroke-linejoin="round" stroke-miterlimit="10" stroke-width="3"/><line x2="467.73" y2="129.574" transform="translate(559.11 14.964)" fill="none" stroke="#1f2970" stroke-linecap="round" stroke-linejoin="round" stroke-miterlimit="10" stroke-width="3"/><line x2="467.74" y2="129.574" transform="translate(670.93 12.47)" fill="none" stroke="#1f2970" stroke-linecap="round" stroke-linejoin="round" stroke-miterlimit="10" stroke-width="3"/><line x2="467.74" y2="129.574" transform="translate(782.75 9.976)" fill="none" stroke="#1f2970" stroke-linecap="round" stroke-linejoin="round" stroke-miterlimit="10" stroke-width="3"/><line x2="467.73" y2="129.574" transform="translate(894.58 7.482)" fill="none" stroke="#1f2970" stroke-linecap="round" stroke-linejoin="round" stroke-miterlimit="10" stroke-width="3"/><line x2="467.73" y2="129.574" transform="translate(1006.4 4.988)" fill="none" stroke="#1f2970" stroke-linecap="round" stroke-linejoin="round" stroke-miterlimit="10" stroke-width="3"/><line x2="467.74" y2="129.574" transform="translate(1118.22 2.494)" fill="none" stroke="#1f2970" stroke-linecap="round" stroke-linejoin="round" stroke-miterlimit="10" stroke-width="3"/><line x2="467.74" y2="129.574" transform="translate(1230.04)" fill="none" stroke="#1f2970" stroke-linecap="round" stroke-linejoin="round" stroke-miterlimit="10" stroke-width="3"/></g><g transform="translate(-137.793 -34.891)"><line x1="467.74" y2="129.574" transform="translate(1230.04 27.433)" fill="none" stroke="#1f2970" stroke-linecap="round" stroke-linejoin="round" stroke-miterlimit="10" stroke-width="3"/><line x1="467.74" y2="129.574" transform="translate(1118.22 24.939)" fill="none" stroke="#1f2970" stroke-linecap="round" stroke-linejoin="round" stroke-miterlimit="10" stroke-width="3"/><line x1="467.73" y2="129.574" transform="translate(1006.4 22.445)" fill="none" stroke="#1f2970" stroke-linecap="round" stroke-linejoin="round" stroke-miterlimit="10" stroke-width="3"/><line x1="467.73" y2="129.574" transform="translate(894.58 19.951)" fill="none" stroke="#1f2970" stroke-linecap="round" stroke-linejoin="round" stroke-miterlimit="10" stroke-width="3"/><line x1="467.74" y2="129.574" transform="translate(782.75 17.458)" fill="none" stroke="#1f2970" stroke-linecap="round" stroke-linejoin="round" stroke-miterlimit="10" stroke-width="3"/><line x1="467.74" y2="129.574" transform="translate(670.93 14.964)" fill="none" stroke="#1f2970" stroke-linecap="round" stroke-linejoin="round" stroke-miterlimit="10" stroke-width="3"/><line x1="467.73" y2="129.574" transform="translate(559.11 12.47)" fill="none" stroke="#1f2970" stroke-linecap="round" stroke-linejoin="round" stroke-miterlimit="10" stroke-width="3"/><line x1="467.73" y2="129.574" transform="translate(447.29 9.976)" fill="none" stroke="#1f2970" stroke-linecap="round" stroke-linejoin="round" stroke-miterlimit="10" stroke-width="3"/><line x1="467.74" y2="129.574" transform="translate(335.46 7.482)" fill="none" stroke="#1f2970" stroke-linecap="round" stroke-linejoin="round" stroke-miterlimit="10" stroke-width="3"/><line x1="467.74" y2="129.574" transform="translate(223.64 4.988)" fill="none" stroke="#1f2970" stroke-linecap="round" stroke-linejoin="round" stroke-miterlimit="10" stroke-width="3"/><line x1="467.73" y2="129.574" transform="translate(111.82 2.494)" fill="none" stroke="#1f2970" stroke-linecap="round" stroke-linejoin="round" stroke-miterlimit="10" stroke-width="3"/><line x1="467.73" y2="129.574" fill="none" stroke="#1f2970" stroke-linecap="round" stroke-linejoin="round" stroke-miterlimit="10" stroke-width="3"/></g></g></g><g transform="translate(-628.848 194.778)"><circle cx="52.938" cy="52.938" r="52.938" transform="translate(666.984 801.796) rotate(-45)" fill="none" stroke="#12ae67" stroke-width="3"/><path d="M785.3,810.92v-12.9a1.312,1.312,0,0,0-1.316-1.316h-12.9l-9.117-9.117a1.321,1.321,0,0,0-1.862,0l-9.117,9.117h-12.9a1.313,1.313,0,0,0-1.316,1.316v12.9l-9.117,9.117a1.321,1.321,0,0,0,0,1.862l9.117,9.117v12.9a1.313,1.313,0,0,0,1.316,1.316h12.9l9.117,9.117a1.321,1.321,0,0,0,1.862,0l9.117-9.117h12.9a1.312,1.312,0,0,0,1.316-1.316v-12.9l9.117-9.117a1.321,1.321,0,0,0,0-1.862Z" transform="translate(-19.178 -19.172)" fill="none" stroke="#0dc28d" stroke-linecap="round" stroke-linejoin="round" stroke-miterlimit="10" stroke-width="3"/><g transform="translate(725.043 790.195)"><path d="M780.011,824.543a23.8,23.8,0,0,1,.273-4.412c.327-.975,4.023-.252,4.078,1.9.021.873-12.466,6.117-12.466,6.117s7.59,1.077,16.891,2.53c0,0-11.593-1.262-12.234,3.887-.423,3.437,3.894,6.812,3.894,6.812s-8.708-1.589-11.115-7.508-5.012-13.727-5.012-13.727" transform="translate(-756.003 -819.704)" fill="none" stroke="#12ae67" stroke-linecap="round" stroke-linejoin="round" stroke-miterlimit="10" stroke-width="3"/><path d="M752.155,842.907c-.123.9-.007,3.273,2.632,3.273,2.189,0,7.528-3.28,10.427-6.56" transform="translate(-752.124 -826.039)" fill="none" stroke="#12ae67" stroke-linecap="round" stroke-linejoin="round" stroke-miterlimit="10" stroke-width="3"/></g></g><g transform="translate(-55.873 1355.477)"><g transform="translate(0 0)"><g transform="translate(0 0)"><path d="M490.452,1129.66s-43.756,5.546-36.762,98.383" transform="translate(-327.269 -1074.59)" fill="none" stroke="#1f2970" stroke-linecap="round" stroke-linejoin="round" stroke-miterlimit="10" stroke-width="3"/><path d="M401.431,1209.973S389.917,1105.36,360.37,1083.59" transform="translate(-288.343 -1049.971)" fill="none" stroke="#1f2970" stroke-linecap="round" stroke-linejoin="round" stroke-miterlimit="10" stroke-width="3"/><path d="M435.076,1182.377S414.6,1050.8,444.724,1017.97" transform="translate(-316.901 -998.923)" fill="none" stroke="#1f2970" stroke-linecap="round" stroke-linejoin="round" stroke-miterlimit="10" stroke-width="3"/><path d="M345.99,1173.12c2.892-.18,54.134-14.73,58.133,69.745" transform="translate(-282.296 -1095.613)" fill="none" stroke="#1f2970" stroke-linecap="round" stroke-linejoin="round" stroke-miterlimit="10" stroke-width="3"/><g transform="translate(71.632 108.819)"><path d="M445.15,1372.651H374.617a7.507,7.507,0,0,1-7.481-6.907l-7.446-93.324H460.078l-7.446,93.324A7.508,7.508,0,0,1,445.15,1372.651Z" transform="translate(-359.69 -1272.42)" fill="#fff"/><path d="M445.15,1372.651H374.617a7.507,7.507,0,0,1-7.481-6.907l-7.446-93.324H460.078l-7.446,93.324A7.508,7.508,0,0,1,445.15,1372.651Z" transform="translate(-359.69 -1272.42)" fill="#fff"/><path d="M460.078,1272.42l-1.165,14.626-6.281,78.7a7.5,7.5,0,0,1-7.475,6.907H374.617a7.508,7.508,0,0,1-7.481-6.907l-.261-3.263H408.2a13.091,13.091,0,0,0,13.061-12.221l3.286-49.249a13.092,13.092,0,0,0-13.061-13.965H360.855l-1.165-14.626Z" transform="translate(-359.69 -1272.42)" fill="#b2e3f2"/><path d="M470.91,1272.43l-7.446,93.324a7.5,7.5,0,0,1-7.481,6.907H385.45" transform="translate(-370.523 -1272.424)" fill="none" stroke="#9dbcfd" stroke-linecap="round" stroke-linejoin="round" stroke-miterlimit="10" stroke-width="3"/></g><path d="M542.245,1043.748c-.151,0-.272-1.24-.3-4.508C542.083,1040.642,542.188,1042.149,542.245,1043.748Z" transform="translate(-364.703 -1007.867)" fill="#84c880"/><path d="M299.106,1155.408s-30.144-27.733-53.746,3.685a42.173,42.173,0,0,0-5.3,9.382c5.3-3.181,14.568-8.142,19.488-7.179,7.162,1.391,8.663,6.924,3.39,8.315s-20.021-5.621-26.018,10.071v.023c-3.257,19.441,3,42.887,16.057,61.3,0,0,14.73-34.067,27.3-31.761,12.551,2.318-8.779,14.33-14.18,19.65s-8.391,15.553-5.522,21.406l.012.012c8.286,8.819,18.421,15.709,29.982,19.25,0,0,28.608-10.523,48.542-35.823,0-.012,0-.012.012-.023,6.258-16.457-17.031-27.177-21.927-30.132s-3.587-9.88,9.411-11.6c13-1.738,22.008,27.026,22.008,27.026a83.664,83.664,0,0,0,8.756-28.933C363.9,1132.762,308.146,1146.154,299.106,1155.408Zm-29.779,35.5c-2.979,1.037-6.015.4-6.762-1.426s1.055-4.161,4.033-5.2,6.015-.4,6.774,1.426S272.317,1189.863,269.327,1190.906Zm42.261,27.542c-1.466,2.133-4.983,2.5-7.852.829s-4.01-4.746-2.544-6.878,4.972-2.5,7.852-.829S313.054,1216.322,311.588,1218.448Zm24.077-45.1c-1.159,2.353-4.972,3.071-8.507,1.594s-5.464-4.572-4.311-6.925,4.972-3.083,8.507-1.6S336.824,1170.99,335.665,1173.348Z" transform="translate(-236.073 -1089.58)" fill="#12ae67"/><line x1="10.987" y2="105.365" transform="translate(52.046 66.47)" fill="none" stroke="#1f2970" stroke-linecap="round" stroke-linejoin="round" stroke-miterlimit="10" stroke-width="3"/><line x1="7.811" y1="7.707" transform="translate(53.101 154.44)" fill="none" stroke="#1f2970" stroke-linecap="round" stroke-linejoin="round" stroke-miterlimit="10" stroke-width="3"/><line y1="10.396" x2="11.004" transform="translate(43.03 147.055)" fill="none" stroke="#1f2970" stroke-linecap="round" stroke-linejoin="round" stroke-miterlimit="10" stroke-width="3"/><path d="M315.467,1275.64s-25.23,13.791-24.373,25.2" transform="translate(-259.202 -1147.482)" fill="none" stroke="#1f2970" stroke-linecap="round" stroke-linejoin="round" stroke-miterlimit="10" stroke-width="3"/><path d="M331.32,1293.36s21.162,15.124,20.154,20.055" transform="translate(-276.127 -1156.497)" fill="none" stroke="#1f2970" stroke-linecap="round" stroke-linejoin="round" stroke-miterlimit="10" stroke-width="3"/><path d="M301.121,1231.2s-7.562,6.235-15.3,6.235-28.458-.69-35.243,7.284" transform="translate(-242.174 -1121.074)" fill="none" stroke="#1f2970" stroke-linecap="round" stroke-linejoin="round" stroke-miterlimit="10" stroke-width="3"/><path d="M338.33,1226.17s7.046,11.833,16.9,15.171,18.989,18.248,18.989,18.248" transform="translate(-279.075 -1121.009)" fill="none" stroke="#1f2970" stroke-linecap="round" stroke-linejoin="round" stroke-miterlimit="10" stroke-width="3"/><path d="M302.256,1209.679s-10.6,2.115-18.891-2.046-24.367-1.2-32.775,4.074" transform="translate(-242.178 -1106.132)" fill="none" stroke="#1f2970" stroke-linecap="round" stroke-linejoin="round" stroke-miterlimit="10" stroke-width="3"/><path d="M341.03,1202.6a28.186,28.186,0,0,0,19.343,8.037c12.053.087,23.689.927,31.517,8.756" transform="translate(-280.21 -1105.648)" fill="none" stroke="#1f2970" stroke-linecap="round" stroke-linejoin="round" stroke-miterlimit="10" stroke-width="3"/><path d="M316.084,1182.463a14.689,14.689,0,0,1-13.374-10.118c-3.72-10.251-16.868-12.325-21.22-12.325" transform="translate(-255.172 -1082.589)" fill="none" stroke="#1f2970" stroke-linecap="round" stroke-linejoin="round" stroke-miterlimit="10" stroke-width="3"/><path d="M326.817,1062.007s3.39-21.481-18.085-22.182c-7.678-.249-15.634,6.1-20.629,16.283,3.987-2.428,11.334-3.106,15.107-1.64s2.764,4.074-5.777,3.384-12.024,5.059-12.024,5.059H285.4c-3.668,11.752-3.633,26.841,3.425,42.435,0,0,7.1-9.944,13.386-13.467s11.8-1.669,8.286,1.327-20.218,11.52-19.024,17.425a88.759,88.759,0,0,0,17.262,21.742s24.668-3.668,41.594-23.874v-.012c.1-.348,2.6-8.628,0-11.346-2.66-2.782-13.467-9.48-12.209-14.794s11.711,4.282,13.4,9.532a95.761,95.761,0,0,1,2.683,11.474,63.974,63.974,0,0,0,6.154-11.526C374.658,1056.809,344.9,1032.894,326.817,1062.007Zm-20.838,11.873c-2.463.649-4.757.191-5.134-1.026s1.3-2.718,3.761-3.372,4.757-.2,5.146,1.026C310.128,1071.713,308.442,1073.226,305.979,1073.88Zm26.667,22.53c-.985.916-3.257.3-5.076-1.356-1.8-1.669-2.474-3.755-1.478-4.671s3.257-.3,5.076,1.367C332.971,1093.409,333.643,1095.5,332.647,1096.41Zm20.015-26.94c-.916,1.8-4.207,2.167-7.348.811s-4.931-3.923-4.01-5.737,4.219-2.167,7.359-.811S353.589,1067.657,352.661,1069.471Z" transform="translate(-255.799 -1008.11)" fill="#14c664"/><g transform="translate(32.599 39.804)"><line x1="17.007" y2="66.407" transform="translate(21.411 14.093)" fill="none" stroke="#1f2970" stroke-linecap="round" stroke-linejoin="round" stroke-miterlimit="10" stroke-width="3"/><line y1="5.911" x2="10.013" transform="translate(16.069 62.264)" fill="none" stroke="#1f2970" stroke-linecap="round" stroke-linejoin="round" stroke-miterlimit="10" stroke-width="3"/><path d="M343.9,1135.41s-1.715,14.406,11.056,19.719" transform="translate(-313.986 -1088.114)" fill="none" stroke="#1f2970" stroke-linecap="round" stroke-linejoin="round" stroke-miterlimit="10" stroke-width="3"/><path d="M313.72,1149.36c1.918-9.932,11.989-5.83,17.877-16.37" transform="translate(-301.325 -1087.096)" fill="none" stroke="#1f2970" stroke-linecap="round" stroke-linejoin="round" stroke-miterlimit="10" stroke-width="3"/><path d="M326.713,1110.243s-24.674-6.055-32.213,4.757" transform="translate(-293.243 -1076.819)" fill="none" stroke="#1f2970" stroke-linecap="round" stroke-linejoin="round" stroke-miterlimit="10" stroke-width="3"/><path d="M351.53,1105.84s24.181,17.407,22.454,24.7" transform="translate(-317.225 -1075.679)" fill="none" stroke="#1f2970" stroke-linecap="round" stroke-linejoin="round" stroke-miterlimit="10" stroke-width="3"/><path d="M328.095,1090.795s-28.232-15.246-35.765-1.368" transform="translate(-292.33 -1066.324)" fill="none" stroke="#1f2970" stroke-linecap="round" stroke-linejoin="round" stroke-miterlimit="10" stroke-width="3"/><path d="M355.06,1092.05s30.451,3.581,31.454,13.235" transform="translate(-318.71 -1069.88)" fill="none" stroke="#1f2970" stroke-linecap="round" stroke-linejoin="round" stroke-miterlimit="10" stroke-width="3"/><path d="M340.682,1074.657s-7.805-20.172-20.612-20.867" transform="translate(-303.995 -1053.79)" fill="none" stroke="#1f2970" stroke-linecap="round" stroke-linejoin="round" stroke-miterlimit="10" stroke-width="3"/><path d="M357.6,1076.434s11.665-11.085,23.631-6.954" transform="translate(-319.778 -1060)" fill="none" stroke="#1f2970" stroke-linecap="round" stroke-linejoin="round" stroke-miterlimit="10" stroke-width="3"/></g><path d="M522.221,1073.676c-36.072-7.452-41.113,22.692-40.847,28.892-.846-4.8-5.58-24.674-25.456-24.262-22.605.464-46.213,15.246-34.021,67.01a81.5,81.5,0,0,0,3.877,12.151c1.4-3.894,4.479-11.972,7.29-15.507,3.761-4.734,13.809-20.907,24.859-15.13s-30.532,21.331-28.713,37.915v.023c18.937,35.319,58.857,43.872,58.857,43.872a122.635,122.635,0,0,0,32.184-21.684c.012-.012.012-.012.012-.023.127-.5,2.283-9.133-3.071-15.918-5.522-6.977-27.368-17.61-22.854-26.389s39.224,20.629,34.681,33.192a95.091,95.091,0,0,0,11.792-17.257,108.966,108.966,0,0,0,5.963-13.438.188.188,0,0,0,.012-.052s-2.214-9.608-11-14.006-31.384-7.626-30.387-14.093,47.522,3.007,43.107,22.993C557.65,1112.228,553.078,1080.051,522.221,1073.676Zm-69.293,33.563c-.632,2.132-3.987,3.158-7.487,2.289-3.517-.875-5.847-3.309-5.215-5.459.62-2.132,3.987-3.158,7.487-2.289S453.548,1105.089,452.928,1107.239Zm18.271,48.786c-3.987,2.544-8.53,2.88-10.152.736s.284-5.963,4.265-8.507c4-2.556,8.53-2.88,10.164-.736S475.185,1153.469,471.2,1156.025Zm58.179-58.7c-.22,1.976-4,3.222-8.426,2.793s-7.84-2.364-7.62-4.334,4-3.216,8.425-2.793S529.615,1095.366,529.377,1097.324Z" transform="translate(-312.819 -1044.221)" fill="#12ae67"/><g transform="translate(113.835 35.777)"><path d="M526.95,1124.39l8.472,87.251.974,10.031" transform="translate(-472.231 -1102.427)" fill="none" stroke="#1f2970" stroke-linecap="round" stroke-linejoin="round" stroke-miterlimit="10" stroke-width="3"/><line y1="7.608" x2="6.93" transform="translate(56.261 109.214)" fill="none" stroke="#1f2970" stroke-linecap="round" stroke-linejoin="round" stroke-miterlimit="10" stroke-width="3"/><line x1="12.934" y1="13.496" transform="translate(62.16 98.575)" fill="none" stroke="#1f2970" stroke-linecap="round" stroke-linejoin="round" stroke-miterlimit="10" stroke-width="3"/><line y1="20.426" x2="22.078" transform="translate(38.929 86.742)" fill="none" stroke="#1f2970" stroke-linecap="round" stroke-linejoin="round" stroke-miterlimit="10" stroke-width="3"/><path d="M562.678,1243.571c1.785-14.035-19.32-14.637-26.748-26.731" transform="translate(-476.007 -1141.305)" fill="none" stroke="#1f2970" stroke-linecap="round" stroke-linejoin="round" stroke-miterlimit="10" stroke-width="3"/><path d="M455.669,1199.828c-2.776-9.312,41.276-28.377,43.159-41.548" transform="translate(-442.202 -1116.679)" fill="none" stroke="#1f2970" stroke-linecap="round" stroke-linejoin="round" stroke-miterlimit="10" stroke-width="3"/><path d="M582.627,1192.239s-6.774-13.635-21.846-17.448-24.564.354-29.611-6.931" transform="translate(-474.005 -1120.707)" fill="none" stroke="#1f2970" stroke-linecap="round" stroke-linejoin="round" stroke-miterlimit="10" stroke-width="3"/><path d="M432.52,1154.853c4.5-13.873,56.261-5.551,55.426-17.923" transform="translate(-432.52 -1107.7)" fill="none" stroke="#1f2970" stroke-linecap="round" stroke-linejoin="round" stroke-miterlimit="10" stroke-width="3"/><path d="M589.887,1142.013s-20.345-10.541-32.022-8.46-18.462,11.375-28.255,8.46" transform="translate(-473.349 -1106.166)" fill="none" stroke="#1f2970" stroke-linecap="round" stroke-linejoin="round" stroke-miterlimit="10" stroke-width="3"/><path d="M527.8,1113.521s10.338-1.379,13.415-11.079,20.82-16.834,26.076-15.866" transform="translate(-472.588 -1086.488)" fill="none" stroke="#1f2970" stroke-linecap="round" stroke-linejoin="round" stroke-miterlimit="10" stroke-width="3"/></g><path d="M481.864,1020.981c-.058-1.594-.162-3.106-.3-4.508-.081-.875-.185-1.756-.319-2.642v-.023c-2.66-10.9-21.214-9.5-23.793-9.932-2.753-.464-4.265-6.936,8.286-6.473a20.782,20.782,0,0,1,11.792,4.068c-4.815-10.106-13.82-17.622-27.224-16.2-17.042,1.814-15.565,16.2-14.887,19.916-.823-3.28-4.9-14.313-21.661-9.868-19.6,5.209-18.12,31.228-8.675,49.921a35.027,35.027,0,0,0,6.6,8.831s-.377-11.085,1.7-14.991,9.6-12.221,12.238-9.434c2.637,2.77-16.069,12.123-8.321,29.362v.012c15.188,11.862,36.767,18.8,36.767,18.8a46.158,46.158,0,0,0,16.915-14.73l.012-.012c0-.011.012-.011.012-.023.162-.226.319-.464.481-.7.058-.087.128-.2.185-.3a11.3,11.3,0,0,0,.858-9.359c-2.075-6.061-19.209-14.215-19.024-16.469s3.952-4.682,11.3,0,11.954,11.989,11.439,17.349C481.094,1042.352,482.183,1030.165,481.864,1020.981Zm-62.9-3.326c-2.329.991-4.908.411-5.777-1.3s.342-3.894,2.671-4.885,4.908-.4,5.766,1.3S421.3,1016.675,418.963,1017.655Zm17.877,26.123c-2.075.887-4.3.5-4.983-.84s.458-3.158,2.544-4.045,4.3-.5,4.983.84S438.925,1042.891,436.839,1043.777Zm26.453-25.85c-.747,1.4-3.28,1.663-5.638.585s-3.668-3.083-2.909-4.485,3.268-1.663,5.638-.585S464.04,1016.525,463.292,1017.927Z" transform="translate(-304.322 -985.1)" fill="#14c664"/><g transform="translate(101.887 8.147)"><path d="M462.33,1019.77s14.4,33.482,19.1,62.415" transform="translate(-433.107 -1007.827)" fill="none" stroke="#1f2970" stroke-linecap="round" stroke-linejoin="round" stroke-miterlimit="10" stroke-width="3"/><line x1="8.594" y1="9.515" transform="translate(45.431 60.323)" fill="none" stroke="#1f2970" stroke-linecap="round" stroke-linejoin="round" stroke-miterlimit="10" stroke-width="3"/><line y1="17.784" x2="12.383" transform="translate(31.118 52.929)" fill="none" stroke="#1f2970" stroke-linecap="round" stroke-linejoin="round" stroke-miterlimit="10" stroke-width="3"/><path d="M503.756,1098.225c-2.5-11.236-15.3-8.037-19.186-16.075" transform="translate(-442.46 -1034.06)" fill="none" stroke="#1f2970" stroke-linecap="round" stroke-linejoin="round" stroke-miterlimit="10" stroke-width="3"/><path d="M506.33,1058.561s-8.872-7.707-18.636-6.554-13.815-2.457-13.815-2.457" transform="translate(-437.964 -1020.35)" fill="none" stroke="#1f2970" stroke-linecap="round" stroke-linejoin="round" stroke-miterlimit="10" stroke-width="3"/><path d="M459.253,1053.79s-23.138,10.193-22.194,23.764" transform="translate(-422.469 -1022.133)" fill="none" stroke="#1f2970" stroke-linecap="round" stroke-linejoin="round" stroke-miterlimit="10" stroke-width="3"/><path d="M468.82,1020.479s.834-18.543,18.723-21.319" transform="translate(-435.836 -999.16)" fill="none" stroke="#1f2970" stroke-linecap="round" stroke-linejoin="round" stroke-miterlimit="10" stroke-width="3"/><path d="M470.47,1034.269s19.766-14.081,31.981-4.033" transform="translate(-436.53 -1010.708)" fill="none" stroke="#1f2970" stroke-linecap="round" stroke-linejoin="round" stroke-miterlimit="10" stroke-width="3"/><path d="M411.9,1054.614c0-13.4,35.527-13.6,32.375-21.394" transform="translate(-411.9 -1013.483)" fill="none" stroke="#1f2970" stroke-linecap="round" stroke-linejoin="round" stroke-miterlimit="10" stroke-width="3"/><path d="M445.912,1022.981s-14.887-9.034-26.522-2.851" transform="translate(-415.05 -1007.068)" fill="none" stroke="#1f2970" stroke-linecap="round" stroke-linejoin="round" stroke-miterlimit="10" stroke-width="3"/></g></g></g></g><g transform="translate(1080.876 1403.616)"><g transform="translate(24.278 21.834)"><path d="M962.74,1428.443v5.829l-42.677-11.916-63.043-17.6a2.8,2.8,0,0,1-2.05-2.7,3.1,3.1,0,0,1,.1-.753,2.8,2.8,0,0,1,3.458-1.945l1.9.53.021.007Z" transform="translate(-854.97 -1399.228)" fill="#14c664"/><path d="M1009.58,1428.413v5.829l42.677-11.916,63.043-17.605a2.8,2.8,0,0,0,2.05-2.7,3.1,3.1,0,0,0-.1-.753,2.8,2.8,0,0,0-3.458-1.945l-1.9.53-.021.007Z" transform="translate(-901.782 -1399.219)" fill="#14c664"/></g><g transform="translate(0 23.065)"><g transform="translate(44.833 40.715)"><path d="M932.9,1459.41l-46.428,47.879a7.166,7.166,0,0,0,.46,10.409h0a7.166,7.166,0,0,0,9.141.188l65.665-52.153Z" transform="translate(-884.453 -1459.389)" fill="#ffac61"/><path d="M1052.647,1459.38l46.428,47.879a7.167,7.167,0,0,1-.46,10.41h0a7.166,7.166,0,0,1-9.141.188L1023.81,1465.7Z" transform="translate(-926.646 -1459.38)" fill="#ffac61"/></g><path d="M952.247,1454.918l-124.992-34.854a9.713,9.713,0,0,1-6.652-12.278h0a9.708,9.708,0,0,1,11.867-6.421l119.818,33.411Z" transform="translate(-820.15 -1400.99)" fill="#ffca60"/><path d="M1009.492,1454.9l124.992-34.854a9.713,9.713,0,0,0,6.652-12.278h0a9.709,9.709,0,0,0-11.867-6.421l-119.818,33.411Z" transform="translate(-877.465 -1400.984)" fill="#ffca60"/></g><g transform="translate(29.73)"><path d="M965.108,1399.341v19.62l-102.3-28.559-.021-.007,4.351-21.767s15.3-3.919,51.009,6.854S965.108,1399.341,965.108,1399.341Z" transform="translate(-862.79 -1367.913)" fill="#fff"/><path d="M1009.58,1399.311v19.62l102.3-28.559.021-.007-4.351-21.767s-15.3-3.919-51.009,6.853S1009.58,1399.311,1009.58,1399.311Z" transform="translate(-907.234 -1367.904)" fill="#fff"/><path d="M1063.1,1368.91l-50,15.674c-11.992,3.758-47.969,15.039-47.969,15.039l-97.988-30.692L862.79,1390.7l102.339,28.544,102.3-28.559Z" transform="translate(-862.79 -1368.208)" fill="#fff"/></g></g></g></svg>