<svg xmlns="http://www.w3.org/2000/svg" width="19.067" height="19.067" viewBox="0 0 19.067 19.067">
  <path id="icons8-instagram" d="M8.3,3A5.3,5.3,0,0,0,3,8.3v8.474a5.3,5.3,0,0,0,5.3,5.3h8.474a5.3,5.3,0,0,0,5.3-5.3V8.3a5.3,5.3,0,0,0-5.3-5.3Zm0,2.119h8.474A3.182,3.182,0,0,1,19.948,8.3v8.474a3.182,3.182,0,0,1-3.178,3.178H8.3a3.182,3.182,0,0,1-3.178-3.178V8.3A3.182,3.182,0,0,1,8.3,5.119ZM17.83,6.178a1.059,1.059,0,1,0,1.059,1.059A1.059,1.059,0,0,0,17.83,6.178Zm-5.3,1.059a5.3,5.3,0,1,0,5.3,5.3A5.3,5.3,0,0,0,12.534,7.237Zm0,2.119a3.178,3.178,0,1,1-3.178,3.178A3.182,3.182,0,0,1,12.534,9.356Z" transform="translate(-3 -3)" fill="#e6fbe2"/>
</svg>
