<svg xmlns="http://www.w3.org/2000/svg" width="22.193" height="18.035" viewBox="0 0 22.193 18.035">
  <path id="icons8-twitter" d="M24.192,6.571a9.089,9.089,0,0,1-2.615.717,4.561,4.561,0,0,0,2-2.519,9.129,9.129,0,0,1-2.892,1.105,4.554,4.554,0,0,0-7.876,3.115,4.6,4.6,0,0,0,.118,1.037A12.926,12.926,0,0,1,3.544,5.268a4.561,4.561,0,0,0,1.409,6.079,4.544,4.544,0,0,1-2.062-.569v.057A4.554,4.554,0,0,0,6.543,15.3a4.555,4.555,0,0,1-1.2.16,4.636,4.636,0,0,1-.856-.081A4.559,4.559,0,0,0,8.74,18.54,9.187,9.187,0,0,1,2,20.426a12.89,12.89,0,0,0,6.98,2.045A12.865,12.865,0,0,0,21.932,9.516q0-.3-.013-.589A9.265,9.265,0,0,0,24.192,6.571Z" transform="translate(-1.999 -4.436)" fill="#e6fbe2"/>
</svg>
