<svg xmlns="http://www.w3.org/2000/svg" width="20.486" height="20.17" viewBox="0 0 20.486 20.17">
  <path id="icons8-github" d="M13.243,3a10.237,10.237,0,0,0-2.482,20.17,1.5,1.5,0,0,1-.079-.5V20.921H9.395a1.782,1.782,0,0,1-1.626-.861c-.335-.622-.393-1.574-1.225-2.156-.247-.194-.059-.415.225-.385a2.684,2.684,0,0,1,1.37,1.043,1.316,1.316,0,0,0,1.362.656,9.787,9.787,0,0,0,1.443-.1A3.213,3.213,0,0,1,12.3,17.441c-3.411-.351-5.039-2.048-5.039-4.351A4.186,4.186,0,0,1,8.4,10.33c-.236-.8-.532-2.439.09-3.062a3.565,3.565,0,0,1,2.685,1.264,7.745,7.745,0,0,1,4.981,0,3.563,3.563,0,0,1,2.687-1.266c.625.624.325,2.267.087,3.068a4.185,4.185,0,0,1,1.134,2.754c0,2.3-1.625,4-5.031,4.351a3.593,3.593,0,0,1,1.621,2.9v2.334a1.5,1.5,0,0,1-.03.229A10.237,10.237,0,0,0,13.243,3Z" transform="translate(-3 -3)" fill="#e6fbe2"/>
</svg>
